<svg id="Layer_1" data-name="Layer 1" xmlns="http://www.w3.org/2000/svg" xmlns:xlink="http://www.w3.org/1999/xlink" viewBox="0 0 223.25 178.53"><defs><style>.cls-1{opacity:0.5;}.cls-2{fill:#e5eefd;}.cls-3{fill:#717791;}.cls-4{fill:#7db7ff;}.cls-5{fill:#fff;}.cls-6{fill:#b8d9ff;}.cls-7{fill:#ddecfe;}.cls-11,.cls-12,.cls-13,.cls-14,.cls-15,.cls-8,.cls-9{fill:none;stroke-linecap:round;}.cls-8,.cls-9{stroke:#1676ee;}.cls-11,.cls-8,.cls-9{stroke-linejoin:round;}.cls-11,.cls-9{stroke-width:2px;}.cls-10{fill:#a6cfff;}.cls-11{stroke:#91c2ff;}.cls-12,.cls-13,.cls-14,.cls-15{stroke-miterlimit:10;stroke-width:5px;}.cls-12{stroke:url(#New_Gradient_Swatch_3);}.cls-13{stroke:url(#New_Gradient_Swatch_3-2);}.cls-14{stroke:url(#New_Gradient_Swatch_3-3);}.cls-15{stroke:url(#New_Gradient_Swatch_3-4);}</style><linearGradient id="New_Gradient_Swatch_3" x1="85.24" y1="104.17" x2="162.57" y2="104.17" gradientTransform="translate(-32.2 -0.73) rotate(-8.98)" gradientUnits="userSpaceOnUse"><stop offset="0" stop-color="#ff851a"/><stop offset="0.4" stop-color="#ff9a23"/><stop offset="1" stop-color="#ffb52f"/></linearGradient><linearGradient id="New_Gradient_Swatch_3-2" x1="82.02" y1="99.33" x2="100.32" y2="99.33" xlink:href="#New_Gradient_Swatch_3"/><linearGradient id="New_Gradient_Swatch_3-3" x1="77.71" y1="147.53" x2="155.53" y2="147.53" xlink:href="#New_Gradient_Swatch_3"/><linearGradient id="New_Gradient_Swatch_3-4" x1="140.86" y1="150.37" x2="158.92" y2="150.37" xlink:href="#New_Gradient_Swatch_3"/></defs><title>reset password</title><g class="cls-1"><path class="cls-2" d="M210.7,132.25c-1.17,11.45-7.94,22.91-9.68,24.25s-4.9.61-7.08.61H21.08l-.1-.18c-4.29-7.19-9.17-14.17-11.6-22.22C2.6,112.29,24.2,97.13,38.17,82.78c8-8.21,8.6-20,15.52-28.81C63.16,42,79.18,35.7,94.48,34.72c17.58-1.12,32.52,5,43.2,18.59,8.79,11.23,13.79,28.6,27.6,35.35,4.95,2.42,10.69,2.72,16.05,4.1C198.82,97.26,212.5,114.61,210.7,132.25Z"/><path class="cls-3" d="M93.76,165.92a52.1,52.1,0,0,1,7.06-.36l7.05-.06,14.11-.1h21.16a64.24,64.24,0,0,1,7.06.31.91.91,0,0,1,0,1.81,64.24,64.24,0,0,1-7.06.31H122l-14.11-.1-7.05,0a52.11,52.11,0,0,1-7.06-.37.7.7,0,0,1,0-1.39Z"/><path class="cls-3" d="M70.54,165.87c2.41-.18,4.82-.25,7.23-.28a64.66,64.66,0,0,1,7.23.2.83.83,0,0,1,.76.9.84.84,0,0,1-.76.76,69.82,69.82,0,0,1-7.23.2c-2.41,0-4.82-.1-7.23-.28a.76.76,0,0,1-.69-.81A.74.74,0,0,1,70.54,165.87Z"/><ellipse class="cls-2" cx="35.36" cy="7.57" rx="2.16" ry="2.07"/><ellipse class="cls-2" cx="168.66" cy="62.79" rx="4.15" ry="3.98"/><ellipse class="cls-2" cx="117.29" cy="19.64" rx="4.88" ry="4.68"/><ellipse class="cls-2" cx="191.09" cy="75.43" rx="3.32" ry="3.18"/><ellipse class="cls-2" cx="188.59" cy="29.71" rx="2.83" ry="2.71"/><ellipse class="cls-2" cx="146.11" cy="14.39" rx="2.83" ry="2.71"/><path class="cls-2" d="M27.17,72.15a5.25,5.25,0,0,0,4.93.77A4.94,4.94,0,0,0,34,71.56a7.11,7.11,0,0,0,1.27-6.71c-.81-2.48-3.16-4.76-5.56-4.28-2.15.43-4.89,3.34-5.42,5.8C23.81,68.62,25.62,71.07,27.17,72.15Z"/><path class="cls-3" d="M208,156.67a3.82,3.82,0,0,1,2-.4,7,7,0,0,1,2,.29.88.88,0,0,1,.59,1.1.91.91,0,0,1-.59.59,7.33,7.33,0,0,1-2,.28,3.73,3.73,0,0,1-2-.4.83.83,0,0,1-.33-1.13A.81.81,0,0,1,208,156.67Z"/><path class="cls-3" d="M24.18,156.71c7.53-.32,15.07-.37,22.6-.36l22.6,0,45.2,0,45.21-.05,22.6,0c7.53,0,15.07,0,22.6.31a.89.89,0,0,1,.87.93.91.91,0,0,1-.87.88c-7.53.27-15.07.29-22.6.3l-22.6,0-45.21-.06-45.2-.05-22.6,0c-7.53,0-15.07-.05-22.6-.36a.7.7,0,0,1-.67-.73A.7.7,0,0,1,24.18,156.71Z"/><path class="cls-3" d="M19.73,156.37a.7.7,0,0,1,.29,0c.05,0,.1,0,.15.05a.4.4,0,0,1,.15.09,1.23,1.23,0,0,1,0,1.74l0,0a.6.6,0,0,1-.15.09c-.05,0-.1.05-.15.05a.94.94,0,0,1-.29,0,1.08,1.08,0,0,1-.7-1.36A1.11,1.11,0,0,1,19.73,156.37Z"/><path class="cls-3" d="M12.49,156.65a5.09,5.09,0,0,1,1.47-.28,3,3,0,0,1,1.46.2.91.91,0,0,1,.47,1.19.94.94,0,0,1-.47.47,2.77,2.77,0,0,1-1.46.2,5.09,5.09,0,0,1-1.47-.28.8.8,0,0,1,0-1.5Z"/></g><path class="cls-4" d="M117.27,83.33A13.65,13.65,0,0,0,94.63,93.6v1.9h2.46V92.32a9.92,9.92,0,0,1,19.83,0V95.5h3.74V92.32A13.58,13.58,0,0,0,117.27,83.33Z"/><rect class="cls-5" x="90.33" y="95.5" width="33.38" height="31.42" rx="6.4"/><path class="cls-6" d="M123.86,99v25.93a2,2,0,0,1-2,2H92.07a2,2,0,0,1-2-2V99a2,2,0,0,1,2-2h29.79a2,2,0,0,1,2,2Z"/><path class="cls-7" d="M122.36,97.06v23.75a2,2,0,0,1-2,2H90.57a2.08,2.08,0,0,1-.5-.07V99a2,2,0,0,1,2-2h29.79A2,2,0,0,1,122.36,97.06Z"/><line class="cls-8" x1="88.61" y1="104.82" x2="88.61" y2="104.28"/><path class="cls-9" d="M125.26,124.92a2.12,2.12,0,0,1-2.12,2H90.74a2.13,2.13,0,0,1-2.13-2.13V109.15"/><line class="cls-9" x1="125.27" y1="111.94" x2="125.27" y2="122.1"/><path class="cls-9" d="M88.61,102.24V97.63a2.14,2.14,0,0,1,2.13-2.13h32.4a2.14,2.14,0,0,1,2.13,2.13v7.86"/><path class="cls-4" d="M103.28,107.46c0,1.84.48,3.05,2.16,3.53v4.79a1.07,1.07,0,0,0,1.07,1.07h0c.6,0,1.77-.48,1.77-1.07v-4.45a3.93,3.93,0,1,0-5-4.21c0,.11,0,.23,0,.34"/><path class="cls-9" d="M105.82,116v.23a1.12,1.12,0,0,0,1.12,1.12h0a1.12,1.12,0,0,0,1.12-1.12v-4.65a4.11,4.11,0,1,0-5.21-4.41,4.18,4.18,0,0,0,0,.5"/><path class="cls-8" d="M103.49,109.9a4.12,4.12,0,0,0,2.33,1.71v1.63"/><path class="cls-9" d="M98.82,81.4l-.18.14m-1.28,1.12a13.65,13.65,0,0,0-4,9.66V95.5h3.74V92.32a9.92,9.92,0,0,1,19.83,0V95.5h3.74V92.32A13.67,13.67,0,0,0,107,78.67a13.49,13.49,0,0,0-5.54,1.18"/><path class="cls-5" d="M97,110.06a11.06,11.06,0,1,0-5.67,4.46l1.4,1.74a3.85,3.85,0,0,0,2.07,1.34l2,.51a.61.61,0,0,1,.44.71l-.44,2.25a.4.4,0,0,0,.09.36.47.47,0,0,0,.39.16l.55-.06.91,1.15a1.19,1.19,0,0,0,1.07.43.61.61,0,0,1,.68.63l-.06,1.65a1.12,1.12,0,0,0,.26.8l.62.78a1.2,1.2,0,0,0,.82.44l1.26.12a.62.62,0,0,1,.55.61l0,1.66a1.21,1.21,0,0,0,.26.76l.57.71a2.32,2.32,0,0,0,1.57.86l3.46.29a.73.73,0,0,0,.77-.83l-.85-5.19a2.25,2.25,0,0,0-.47-1.07L98.5,112m-15.74-14a2.61,2.61,0,1,1-.41,3.67A2.61,2.61,0,0,1,82.76,97.94Z"/><path class="cls-7" d="M82.13,97a10.24,10.24,0,0,0-1.51,14.4,9.6,9.6,0,0,0,11,2.94L92.93,116a6.64,6.64,0,0,0,2.45,1.91l1.81.48a.57.57,0,0,1,.42.66l-.4,2.08a.43.43,0,0,0,.08.33.44.44,0,0,0,.37.16l.5-.06.86,1.07a1.09,1.09,0,0,0,1,.41.57.57,0,0,1,.63.59l0,1.53a1.14,1.14,0,0,0,.25.74l.58.72a1.08,1.08,0,0,0,.76.42l1.16.12a.58.58,0,0,1,.52.57l.5,2.18a1.14,1.14,0,0,0,.25.71l.53.66a2.2,2.2,0,0,0,1.45.81l3.2.28a.66.66,0,0,0,.71-.76l-.6-5a2.07,2.07,0,0,0-.45-1L97.06,110.1a9.31,9.31,0,0,0,.83-9.11,10.1,10.1,0,0,0-1.38-2.25A10.24,10.24,0,0,0,82.13,97Zm3.73,4.77a2.61,2.61,0,1,1,.4-3.67A2.61,2.61,0,0,1,85.86,101.8Z"/><path class="cls-10" d="M97.89,101a9.31,9.31,0,0,1-.83,9.11l6.58,8.24A10,10,0,0,1,97.89,101Z"/><path class="cls-9" d="M109.74,127.09l-.12-.69a2.25,2.25,0,0,0-.47-1.07L98.5,112m-21.61-10.5a11.07,11.07,0,0,0,14.39,13l1.4,1.74a3.85,3.85,0,0,0,2.07,1.34l2,.51a.61.61,0,0,1,.44.71l-.44,2.25a.4.4,0,0,0,.09.36.47.47,0,0,0,.39.16l.55-.06.91,1.15a1.19,1.19,0,0,0,1.07.43.61.61,0,0,1,.68.63l-.06,1.65a1.12,1.12,0,0,0,.26.8l.62.78a1.2,1.2,0,0,0,.82.44l1.26.12a.62.62,0,0,1,.55.61l0,1.66a1.21,1.21,0,0,0,.26.76l.57.71a2.32,2.32,0,0,0,1.57.86l3.46.29a.73.73,0,0,0,.77-.83l-.35-2.12M77.9,98.83c-.06.11-.12.23-.17.34M97,110.06A11.06,11.06,0,0,0,81,95.2m6,4.46a2.62,2.62,0,0,1-4.64,2,2.94,2.94,0,0,1-.31-.5m-.18-1.76a2.62,2.62,0,0,1,5.13.31"/><path class="cls-9" d="M90.93,114.63a10.71,10.71,0,0,0,2.18-.94"/><line class="cls-9" x1="107.22" y1="127.57" x2="107.57" y2="128"/><line class="cls-9" x1="101.15" y1="119.97" x2="104.07" y2="123.62"/><line class="cls-9" x1="95.04" y1="112.32" x2="99.79" y2="118.26"/><path class="cls-11" d="M94.77,108.1a8.52,8.52,0,0,1-2.07,2.39A8.3,8.3,0,0,1,89.79,112"/><path class="cls-11" d="M95.91,103.85c0,.17,0,.33,0,.5"/><path class="cls-11" d="M91.27,96.25a8.5,8.5,0,0,1,4.52,6.17"/><path class="cls-11" d="M80.73,109.15A8.44,8.44,0,0,1,78.87,104"/><path class="cls-11" d="M85.83,112.21c-.26,0-.51-.1-.76-.17"/><path class="cls-12" d="M145.06,95.6s-4.89-28.15-37.77-31c0,0-22.11-2.61-36.9,21.76"/><polyline class="cls-13" points="66.95 77.25 68 90.3 80.48 85.62"/><path class="cls-14" d="M67.31,115.17S75.24,140.7,100,143.91c0,0,28.06,4.51,42.08-22.24"/><polyline class="cls-15" points="132.42 122.66 144.71 117.44 146.27 130.19"/></svg>